<svg xmlns="http://www.w3.org/2000/svg" version="1.1" xmlns:xlink="http://www.w3.org/1999/xlink" xmlns:svgjs="http://svgjs.dev/svgjs" width="1440" height="560" preserveAspectRatio="none" viewBox="0 0 1440 560">
    <g mask="url(&quot;#SvgjsMask1039&quot;)" fill="none">
        <rect width="1440" height="560" x="0" y="0" fill="rgba(139, 171, 235, 1)"></rect>
        <path d="M0,547.302C103.519,547.141,123.338,383.391,210.596,327.693C298.304,271.707,441.921,314.717,499.817,228.259C556.162,144.117,492.222,31.516,475.849,-68.417C459.829,-166.194,466.537,-273.275,404.93,-350.874C342.462,-429.558,242.183,-470.641,143.141,-487.494C50.345,-503.285,-46.519,-485.839,-129.741,-441.856C-204.637,-402.273,-245.025,-324.051,-295.227,-255.816C-341.274,-193.229,-394.732,-135.049,-411.313,-59.138C-428.607,20.037,-427.221,106.117,-390.007,178.11C-353.499,248.738,-268.757,273.693,-211.018,328.35C-135.885,399.473,-103.457,547.463,0,547.302" fill="#789de8"></path>
        <path d="M1440 1210.638C1569.894 1222.9279999999999 1703.5439999999999 1210.671 1818.5 1148.958 1938.56 1084.505 2069.812 993.015 2094.879 859.073 2120.003 724.826 1968.737 621.772 1942.238 487.789 1917.912 364.78999999999996 2017.1280000000002 224.298 1948.5729999999999 119.31900000000002 1880.511 15.095000000000027 1734.585-11.729000000000042 1610.405-20.34699999999998 1499.414-28.049999999999955 1404.344 43.67700000000002 1297.333 74.12200000000001 1189.129 104.90699999999998 1052.312 75.21600000000001 977.913 159.599 903.534 243.95999999999998 939.771 374.85699999999997 933.19 487.132 927.201 589.303 912.679 689.521 941.086 787.846 972.8340000000001 897.735 1017.627 1007.491 1104.891 1081.44 1198.112 1160.438 1318.351 1199.1280000000002 1440 1210.638" fill="#9eb9ee"></path>
    </g>
    <defs>
        <mask id="SvgjsMask1039">
            <rect width="1440" height="560" fill="#ffffff"></rect>
        </mask>
    </defs>
</svg>